# xmcd
#
# Track frame offsets:
#	150
#	13787
#	34125
#	50950
#	66900
#	84112
#	96625
#	113725
#	129987
#	140550
#	149237
#	164400
#	178450
#	198637
#	218462
#	233012
#	252662
#	271012
#	285462
#
# Disc length: 3951 seconds
#
# Revision: 1
# Processed by: cddbd v1.4PL0 Copyright (c) Steve Scherf et al.
# Submitted via: audiograbber 1.82.02
#
DISCID=290f6d13
DTITLE=Various Artist - Farmers Aid 1993
DYEAR=1900
DGENRE=Country
TTITLE0=Slim Dusty - Things Are Not The Same On The Land
TTITLE1=John Williamson - Raining On The Rock
TTITLE2=Rene Diaz - Hard Times In Wonderland
TTITLE3=Grant Luhrs - No Fences
TTITLE4=Rolf Harris - Old Wallerwang
TTITLE5=Bullamakanka - Dust
TTITLE6=Webb Bros - Dry Weather Blues
TTITLE7=Stan Coster - Homestead Of My Dreams
TTITLE8=Jim Haynes - Chain Around My Ankle
TTITLE9=Pixie Jenkins - Fight Of The Blowfly
TTITLE10=John McSweeney - Roses In The Winter
TTITLE11=Chad Morgan - Can`t Cut The Mustard
TTITLE12=Ted Egan - The Pack Horse Drover
TTITLE13=Bruce McCumstie - The Last Bushman`s Song
TTITLE14=Michael Gant - Road Train  Driver
TTITLE15=Keith Urban - Homefires
TTITLE16=Blazing Salads - When It All Comes Down
TTITLE17=Jade Hurley - So Help Me Nashville
TTITLE18=Don`t Panic - Muster Had A Good Time
EXTD=
EXTT0=
EXTT1=
EXTT2=
EXTT3=
EXTT4=
EXTT5=
EXTT6=
EXTT7=
EXTT8=
EXTT9=
EXTT10=
EXTT11=
EXTT12=
EXTT13=
EXTT14=
EXTT15=
EXTT16=
EXTT17=
EXTT18=
PLAYORDER=
